PathFileType	3	(X/Y/Z)	C:\Users\dbak576\Desktop\AnkleMomentFeedback\AB28\AB28_05Apr - Copy\AB28_05Apr_static_01.trc
DataRate	CameraRate	NumFrames	NumMarkers	Units	OrigDataRate	OrigDataStartFrame	OrigNumFrames
200.0	200.0	6	42	mm	200.0	124	141	
Frame#	Time	LASI			RASI			LPSI			RPSI			LTH1			LTH2			LTH3			LTH4			LMFC			LLFC			LTB1			LTB2			LTB3			LTB4			LMMAL			LLMAL			LCAL			LToe			LMT1			LMT5			RTH1			RTH2			RTH3			RTH4			RMFC			RLFC			RTB1			RTB2			RTB3			RTB4			RMMAL			RLMAL			RCAL			RToe			RMT1			RMT5			C7			T10			LACR1			RACR1			CLAV			RBack			
		X1	Y1	Z1	X2	Y2	Z2	X3	Y3	Z3	X4	Y4	Z4	X5	Y5	Z5	X6	Y6	Z6	X7	Y7	Z7	X8	Y8	Z8	X9	Y9	Z9	X10	Y10	Z10	X11	Y11	Z11	X12	Y12	Z12	X13	Y13	Z13	X14	Y14	Z14	X15	Y15	Z15	X16	Y16	Z16	X17	Y17	Z17	X18	Y18	Z18	X19	Y19	Z19	X20	Y20	Z20	X21	Y21	Z21	X22	Y22	Z22	X23	Y23	Z23	X24	Y24	Z24	X25	Y25	Z25	X26	Y26	Z26	X27	Y27	Z27	X28	Y28	Z28	X29	Y29	Z29	X30	Y30	Z30	X31	Y31	Z31	X32	Y32	Z32	X33	Y33	Z33	X34	Y34	Z34	X35	Y35	Z35	X36	Y36	Z36	X37	Y37	Z37	X38	Y38	Z38	X39	Y39	Z39	X40	Y40	Z40	X41	Y41	Z41	X42	Y42	Z42	
124	0.61	342.3945	991.62842	-822.12903	590.07489	1005.9024	-828.95178	425.38089	1034.0608	-648.83032	516.94171	1035.6764	-647.7135	283.39215	799.15253	-793.29785	328.23853	797.8476	-840.11969	303.73087	756.92371	-820.33972	292.83118	707.89722	-802.26117	406.35016	495.87766	-726.12769	290.68878	523.6026	-717.00836	265.50983	398.43811	-663.52069	265.43127	359.24606	-694.10004	276.62341	309.29916	-712.86072	273.55032	400.78378	-725.01685	376.91473	108.60543	-717.82727	292.40637	91.306114	-684.81335	348.41193	47.430836	-620.65985	329.07828	51.595791	-896.41815	362.89145	38.089165	-835.73315	251.81761	38.455688	-801.74133	664.05981	849.50262	-790.55267	677.66937	806.81207	-758.70654	676.7135	775.40948	-723.42639	676.03308	759.56293	-781.77118	545.48761	505.25339	-724.6748	665.30841	518.58325	-710.52045	664.96912	261.02643	-723.03033	675.54596	263.03391	-656.51105	675.48407	224.19359	-687.4295	666.25684	172.96718	-708.19989	586.26556	108.73223	-710.33331	667.73492	97.475441	-672.05316	601.98651	50.654064	-616.37549	663.32574	54.087723	-887.70575	619.487	42.464474	-828.71155	720.93738	44.915443	-779.11792	458.00784	1506.9325	-689.18103	467.71921	1238.1362	-618.26514	288.90628	1483.348	-734.61792	634.59949	1461.7262	-748.48364	462.06348	1427.734	-828.12396	581.17303	1380.7283	-622.54144
125	0.615	342.38748	991.56744	-822.09296	590.08362	1005.8928	-828.90588	425.3793	1034.058	-648.83173	516.92834	1035.675	-647.76111	283.46283	799.18958	-793.31976	328.26312	797.83405	-840.10651	303.72913	756.9126	-820.32983	292.85001	707.86047	-802.26221	406.4223	495.8822	-726.09357	290.64606	523.63483	-717.0332	265.50253	398.43927	-663.49988	265.38141	359.20285	-694.05951	276.57422	309.30377	-712.823	273.49756	400.7854	-725.03729	376.92407	108.6351	-717.81122	292.37149	91.286102	-684.82373	348.41153	47.405991	-620.6554	329.09003	51.619774	-896.43536	362.89349	38.08519	-835.73242	251.78802	38.4566	-801.73407	663.97742	849.43518	-790.51819	677.71942	806.79425	-758.69226	676.72614	775.40887	-723.46674	675.7287	759.32996	-781.55737	545.48468	505.25052	-724.75372	665.35205	518.59137	-710.52832	664.92157	261.02478	-723.00049	675.48346	263.03326	-656.50385	675.49561	224.16603	-687.39435	666.2041	172.96048	-708.18927	586.24609	108.72834	-710.36096	667.74664	97.4496	-671.94586	601.95355	50.658428	-616.34644	663.38446	54.139881	-887.74622	619.38892	42.427544	-828.65094	720.97247	44.95583	-779.13513	458.01489	1506.9172	-689.22363	467.75433	1238.1178	-618.30792	288.91614	1483.348	-734.65381	634.61432	1461.7302	-748.49213	462.06125	1427.7318	-828.12238	581.17047	1380.7335	-622.54254
126	0.62	342.39297	991.58923	-822.11536	590.11395	1005.886	-828.93433	425.35416	1034.0469	-648.88513	516.92859	1035.7291	-647.76453	283.4993	799.24451	-793.31873	328.24951	797.8349	-840.02625	303.77557	756.87567	-820.31427	292.87909	707.84839	-802.24213	406.39221	495.8414	-726.15662	290.53479	523.66327	-717.04352	265.52957	398.46597	-663.47015	265.39581	359.2171	-694.07196	276.56116	309.34027	-712.90942	273.48764	400.8067	-725.03467	376.92456	108.63625	-717.81134	292.38947	91.300064	-684.82861	348.41232	47.424679	-620.65997	329.10898	51.605438	-896.43219	362.89249	38.087185	-835.73279	251.78841	38.455235	-801.73444	664.01086	849.44043	-790.54572	677.72052	806.79456	-758.69043	676.73004	775.40558	-723.40814	675.70404	759.32373	-781.52454	545.50739	505.24341	-724.70544	665.32635	518.60364	-710.54926	664.82227	260.94995	-722.9422	675.48535	263.03406	-656.48572	675.51556	224.20122	-687.38904	666.3114	172.96899	-708.18011	586.30145	108.78796	-710.40228	667.73914	97.468384	-671.96106	601.97302	50.676895	-616.33002	663.38354	54.141911	-887.75763	619.42102	42.49778	-828.75952	720.9809	44.951107	-779.13831	457.98889	1506.9243	-689.22919	467.78809	1238.1296	-618.3468	288.90091	1483.3424	-734.67108	634.61072	1461.7296	-748.51984	462.0629	1427.707	-828.16559	581.14966	1380.7424	-622.59888
127	0.625	342.39331	991.57684	-822.12482	590.07251	1005.8698	-828.99536	425.4086	1034.0234	-648.87787	516.92908	1035.7241	-647.76447	283.45975	799.16498	-793.26495	328.25732	797.78619	-840.04114	303.71585	756.90045	-820.3446	292.9198	707.8656	-802.2359	406.42438	495.88541	-726.08905	290.63998	523.62555	-717.04663	265.55249	398.4418	-663.49518	265.38715	359.23581	-694.05365	276.60278	309.35135	-712.87512	273.53864	400.83057	-725.04901	376.93298	108.61829	-717.80914	292.38889	91.284897	-684.80054	348.41595	47.426136	-620.6347	329.12933	51.625557	-896.41339	362.9313	38.07365	-835.7052	251.80948	38.449978	-801.73517	664.00281	849.43591	-790.54303	677.72321	806.79083	-758.72534	676.74921	775.3811	-723.38269	675.69751	759.31165	-781.55286	545.53082	505.29636	-724.72858	665.33966	518.57849	-710.56958	664.84174	260.98938	-722.97211	675.52283	263.04141	-656.51746	675.51697	224.18874	-687.42139	666.25897	172.9734	-708.19922	586.28461	108.71897	-710.36969	667.7522	97.464027	-671.96118	601.99048	50.667187	-616.38507	663.37585	54.089134	-887.72809	619.42401	42.476265	-828.71088	720.97217	44.944527	-779.14447	458.01865	1506.9104	-689.30304	467.75729	1238.1249	-618.35602	288.89587	1483.3401	-734.66882	634.60046	1461.7241	-748.56781	462.06375	1427.6897	-828.1626	581.15033	1380.7609	-622.60535
128	0.63	342.38876	991.60712	-822.10687	590.0672	1005.8929	-828.99127	425.40985	1034.0206	-648.86951	516.96997	1035.7196	-647.70355	283.49631	799.18658	-793.26154	328.26511	797.81427	-840.11658	303.70007	756.8938	-820.30182	292.86215	707.95374	-802.31635	406.40643	495.87173	-726.07257	290.43665	523.68164	-717.04572	265.49084	398.48627	-663.52551	265.39969	359.20572	-694.07947	276.61172	309.27332	-712.81879	273.51367	400.81155	-725.01807	376.92273	108.63573	-717.81262	292.39575	91.299042	-684.78693	348.41727	47.431282	-620.63422	329.12634	51.607769	-896.41779	362.88947	38.054398	-835.71301	251.79947	38.457752	-801.71582	664.04272	849.46478	-790.61255	677.72009	806.77649	-758.73303	676.76678	775.40887	-723.54034	676.07147	759.56628	-781.77704	545.50012	505.23602	-724.70966	665.36365	518.58307	-710.57178	664.79791	260.95914	-722.9364	675.55127	263.04095	-656.54645	675.51147	224.17982	-687.42804	666.26923	172.95236	-708.17639	586.26428	108.72906	-710.32526	667.7514	97.451653	-671.95453	601.97003	50.660065	-616.36371	663.37909	54.093304	-887.70911	619.48523	42.441967	-828.71619	720.94519	44.920494	-779.11957	458.01791	1506.906	-689.32764	467.76529	1238.1378	-618.40033	288.8913	1483.3401	-734.66711	634.60614	1461.7319	-748.63068	462.08752	1427.6995	-828.19672	581.14508	1380.7433	-622.63489
129	0.635	342.38147	991.56909	-822.08923	590.06073	1005.8444	-829.01453	425.4118	1034.0165	-648.8714	516.94531	1035.7102	-647.74231	283.4213	799.17273	-793.26617	328.27188	797.81976	-840.16718	303.72324	756.87372	-820.27185	292.86014	707.9054	-802.22552	406.35474	495.90631	-726.06848	290.6525	523.61383	-717.03802	265.52246	398.47839	-663.49231	265.38995	359.21603	-694.06396	276.54221	309.33206	-712.88348	273.50262	400.80914	-725.00671	376.92075	108.61941	-717.82526	292.39658	91.306419	-684.79199	348.41974	47.446762	-620.63757	329.1322	51.592953	-896.41577	362.89331	38.044346	-835.74304	251.82289	38.435108	-801.75311	663.99353	849.43402	-790.56482	677.72241	806.76331	-758.74078	676.7561	775.43884	-723.41931	675.69098	759.3252	-781.60895	545.46478	505.2756	-724.802	665.34705	518.57751	-710.60217	664.80634	260.94977	-722.98425	675.55408	263.05258	-656.53131	675.52075	224.16173	-687.42975	666.26129	172.93822	-708.20416	586.2644	108.72794	-710.32397	667.76056	97.451805	-671.95203	601.98651	50.692833	-616.32245	663.32764	54.058807	-887.7085	619.48102	42.465584	-828.71997	720.97821	44.938526	-779.1474	457.99619	1506.8717	-689.38239	467.74301	1238.1483	-618.46759	288.86362	1483.3188	-734.67444	634.61353	1461.7539	-748.69836	462.05862	1427.7045	-828.23114	581.17395	1380.7458	-622.70734
